<svg xmlns="http://www.w3.org/2000/svg" viewBox="0 0 100 100">
  <defs>
    <linearGradient id="grad" x1="0%" y1="0%" x2="100%" y2="100%">
      <stop offset="0%" style="stop-color:#0284c7;stop-opacity:1" />
      <stop offset="100%" style="stop-color:#c026d3;stop-opacity:1" />
    </linearGradient>
  </defs>
  <rect width="100" height="100" rx="20" fill="url(#grad)"/>
  <!-- Cifrão estilizado -->
  <path d="M50 20V80" stroke="white" strokeWidth="6" strokeLinecap="round"/>
  <path d="M35 30C35 30 40 22 50 22C60 22 68 30 68 38C68 46 60 50 50 52C40 54 32 58 32 66C32 74 40 82 50 82C60 82 65 74 65 74" stroke="white" strokeWidth="6" strokeLinecap="round" fill="none"/>
  <!-- Seta de crescimento -->
  <path d="M70 35L82 23M82 23L70 23M82 23L82 35" stroke="white" strokeWidth="5" strokeLinecap="round" strokeLinejoin="round"/>
</svg>
